<?xml version="1.0" encoding="UTF-8"?><svg xmlns="http://www.w3.org/2000/svg" xmlns:xlink="http://www.w3.org/1999/xlink"><symbol viewBox="0 0 18 18" id="floppy-disk" xmlns="http://www.w3.org/2000/svg"><path style="fill:none;stroke-width:2;stroke-linecap:round;stroke-linejoin:round;stroke:#fb8700;stroke-opacity:1;stroke-miterlimit:4" d="M20.594 23.248H4.068A2.409 2.409 0 0 1 2.4 22.59a2.198 2.198 0 0 1-.693-1.59V5.252c0-.596.25-1.171.693-1.594A2.433 2.433 0 0 1 4.068 3h12.984l5.901 5.626v12.376c0 .596-.245 1.166-.687 1.59a2.421 2.421 0 0 1-1.672.656Zm0 0" transform="scale(.75 .72)"/><path style="fill:none;stroke-width:2;stroke-linecap:round;stroke-linejoin:round;stroke:#fb8700;stroke-opacity:1;stroke-miterlimit:4" d="M18.234 23.248v-8.996H6.427v8.996M6.427 3v5.626h9.448" transform="scale(.75 .72)"/></symbol><symbol viewBox="0 0 18 19" id="lock" xmlns="http://www.w3.org/2000/svg"><path style="fill:none;stroke-width:2;stroke-linecap:round;stroke-linejoin:round;stroke:#fb8700;stroke-opacity:1;stroke-miterlimit:4" d="M20.594 11.75H3.807c-1.323 0-2.396 1.01-2.396 2.25v7.873c0 1.246 1.073 2.25 2.396 2.25h16.787c1.323 0 2.396-1.004 2.396-2.25V14c0-1.24-1.073-2.25-2.396-2.25ZM6.203 11.75V7.247c0-1.491.636-2.918 1.76-3.977 1.12-1.053 2.646-1.646 4.235-1.646 1.594 0 3.114.593 4.24 1.646 1.125 1.059 1.755 2.486 1.755 3.977v4.501" transform="scale(.75 .73077)"/></symbol><symbol viewBox="0 0 18 18" id="magnifying" xmlns="http://www.w3.org/2000/svg"><path style="fill:none;stroke-width:2;stroke-linecap:round;stroke-linejoin:round;stroke:#0e0905;stroke-opacity:1;stroke-miterlimit:4" d="M9.002 17A8.001 8.001 0 1 0 .998 9.003C.998 13.42 4.583 17 9.002 17ZM19.002 19.002l-4.354-4.354" transform="scale(.9)"/></symbol></svg>